Coordinates
version=1
nRows=24
nColumns=38
inDegrees=no

Units are S.I. units (second, meters, Newtons, ...)
If the header above contains a line with 'inDegrees', this indicates whether rotational values are in degrees (yes) or radians (no).

endheader
time	pelvis_tilt	pelvis_list	pelvis_rotation	pelvis_tx	pelvis_ty	pelvis_tz	hip_flexion_r	hip_adduction_r	hip_rotation_r	knee_angle_r	ankle_angle_r	subtalar_angle_r	mtp_angle_r	hip_flexion_l	hip_adduction_l	hip_rotation_l	knee_angle_l	ankle_angle_l	subtalar_angle_l	mtp_angle_l	lumbar_extension	lumbar_bending	lumbar_rotation	arm_flex_r	arm_add_r	arm_rot_r	elbow_flex_r	pro_sup_r	wrist_flex_r	wrist_dev_r	arm_flex_l	arm_add_l	arm_rot_l	elbow_flex_l	pro_sup_l	wrist_flex_l	wrist_dev_l
10	1.12027	1.44659	0.483029	0.648287	0.194182	0.771374	0.92514	0.00947176	-0.0900793	1.30675	-0.198684	0	0	0.901199	-0.201662	0.060938	1.26863	-0.0888444	0	0	-0.857032	0.129661	0.0919333	1.09376	-0.737944	0.577128	1.27158	0.384268	0	0	1.12364	-0.636114	0.618758	1.21207	0.432406	0	0
10.01	1.16127	1.44918	0.442088	0.647984	0.19544	0.775387	0.909319	0.0100191	-0.0904015	1.29474	-0.201226	0	0	0.884297	-0.201402	0.058652	1.25408	-0.0900782	0	0	-0.850697	0.129831	0.0909528	1.08364	-0.737798	0.573883	1.27159	0.386506	0	0	1.11773	-0.635072	0.621296	1.20998	0.431796	0	0
10.02	1.20185	1.45182	0.401571	0.647654	0.196752	0.779422	0.89351	0.00994988	-0.0907648	1.28268	-0.203828	0	0	0.866897	-0.200578	0.056348	1.23911	-0.0913042	0	0	-0.844017	0.129847	0.0895508	1.07361	-0.737511	0.57083	1.2717	0.388512	0	0	1.11145	-0.634403	0.62378	1.20822	0.430546	0	0
10.03	1.23373	1.45399	0.369684	0.64733	0.1981	0.78331	0.878849	0.0100695	-0.0903446	1.27032	-0.20588	0	0	0.850625	-0.199426	0.0540045	1.22409	-0.0926753	0	0	-0.835656	0.129922	0.0877769	1.0636	-0.737033	0.56825	1.27189	0.390058	0	0	1.10432	-0.63398	0.625632	1.20665	0.429028	0	0
10.04	1.26333	1.45587	0.339841	0.647041	0.199452	0.787107	0.863969	0.0113628	-0.0883746	1.25657	-0.207752	0	0	0.834776	-0.198547	0.0515374	1.20886	-0.0944188	0	0	-0.826402	0.129789	0.0860035	1.05375	-0.736433	0.566059	1.27167	0.391567	0	0	1.0976	-0.633869	0.628435	1.20488	0.426891	0	0
10.05	1.29649	1.45791	0.306748	0.646743	0.200886	0.790953	0.848678	0.0116445	-0.0876399	1.24312	-0.209529	0	0	0.818531	-0.197608	0.0488596	1.19365	-0.0966417	0	0	-0.817131	0.129436	0.0836746	1.04348	-0.735467	0.563006	1.27111	0.39274	0	0	1.09125	-0.633782	0.631695	1.20313	0.424654	0	0
10.06	1.33554	1.46017	0.268037	0.646445	0.202401	0.794888	0.832757	0.0110967	-0.0879263	1.23003	-0.211279	0	0	0.801421	-0.19651	0.0458043	1.17803	-0.0991004	0	0	-0.808063	0.129056	0.0811259	1.03296	-0.734227	0.559589	1.27016	0.393385	0	0	1.08506	-0.633645	0.635276	1.20127	0.422423	0	0
10.07	1.37693	1.46238	0.227005	0.646168	0.203977	0.798857	0.81643	0.0106995	-0.0880281	1.21659	-0.212859	0	0	0.784157	-0.195495	0.0427358	1.1624	-0.101778	0	0	-0.798724	0.12858	0.0786815	1.0227	-0.733276	0.557529	1.26904	0.394617	0	0	1.07888	-0.633336	0.639221	1.19933	0.420271	0	0
10.08	1.41731	1.4644	0.186809	0.645895	0.205596	0.80283	0.800081	0.0106193	-0.0876609	1.20257	-0.214291	0	0	0.7671	-0.194564	0.0396582	1.14668	-0.10475	0	0	-0.788767	0.128038	0.076417	1.0126	-0.732401	0.555696	1.26751	0.396013	0	0	1.07235	-0.632737	0.642999	1.19719	0.418388	0	0
10.09	1.47312	1.46657	0.131068	0.645602	0.207192	0.806938	0.781958	0.0106012	-0.0869734	1.18809	-0.216083	0	0	0.747963	-0.193402	0.03649	1.13008	-0.108691	0	0	-0.780003	0.127323	0.0745938	1.00294	-0.731676	0.553642	1.26534	0.397299	0	0	1.0668	-0.631425	0.647722	1.19372	0.415521	0	0
10.1	1.52189	1.46827	0.0822324	0.645336	0.208857	0.810968	0.765018	0.0106106	-0.0863829	1.17397	-0.217764	0	0	0.729928	-0.192237	0.033584	1.11372	-0.1123	0	0	-0.770158	0.126602	0.072945	0.992859	-0.731019	0.55135	1.26329	0.397865	0	0	1.06041	-0.630171	0.65166	1.19096	0.412473	0	0
10.11	1.56789	1.46958	0.0359036	0.645099	0.210562	0.814989	0.748457	0.0110489	-0.0855272	1.15949	-0.219607	0	0	0.711971	-0.191125	0.0308203	1.0969	-0.115692	0	0	-0.759594	0.125977	0.0716459	0.983123	-0.730293	0.549898	1.26063	0.398055	0	0	1.05358	-0.628762	0.655407	1.18808	0.409214	0	0
10.12	1.61488	1.47041	-0.0116889	0.644862	0.2123	0.819021	0.731717	0.0120901	-0.0843097	1.14447	-0.221685	0	0	0.693558	-0.190295	0.0277849	1.07944	-0.118845	0	0	-0.748959	0.125309	0.0705492	0.973858	-0.729592	0.549148	1.25759	0.398282	0	0	1.04687	-0.6275	0.659222	1.18526	0.405865	0	0
10.13	1.66362	1.47087	-0.0611345	0.6446	0.214063	0.823073	0.714661	0.0133887	-0.0828354	1.12906	-0.224025	0	0	0.674606	-0.189476	0.0245317	1.06129	-0.12199	0	0	-0.738618	0.12445	0.0693591	0.964955	-0.729076	0.548571	1.25468	0.398654	0	0	1.0401	-0.626442	0.662541	1.18323	0.401568	0	0
10.14	1.71124	1.47125	-0.109197	0.644291	0.215877	0.827122	0.697577	0.0142407	-0.0813939	1.11354	-0.22646	0	0	0.655553	-0.188242	0.0212826	1.04251	-0.125247	0	0	-0.727836	0.123765	0.0678459	0.956203	-0.728568	0.548626	1.25153	0.399528	0	0	1.03316	-0.625345	0.66602	1.18087	0.397605	0	0
10.15	1.7583	1.47179	-0.156143	0.64396	0.217793	0.831215	0.680187	0.0140948	-0.0803444	1.09756	-0.226335	0	0	0.636271	-0.18623	0.0183036	1.0228	-0.129078	0	0	-0.716643	0.123096	0.0662166	0.942754	-0.725175	0.540374	1.24818	0.423382	0	0	1.0267	-0.622878	0.669416	1.17645	0.401289	0	0
10.16	1.79493	1.472	-0.192225	0.643547	0.219745	0.835215	0.663947	0.0133703	-0.0801268	1.08155	-0.230374	0	0	0.618525	-0.183929	0.0163272	1.00347	-0.132649	0	0	-0.704309	0.123651	0.0636798	0.935467	-0.725185	0.543795	1.24532	0.410622	0	0	1.01972	-0.622372	0.673996	1.17376	0.392926	0	0
10.17	1.83535	1.47191	-0.23188	0.643119	0.221721	0.839302	0.646815	0.0128009	-0.0801221	1.06477	-0.233868	0	0	0.60012	-0.181617	0.0146015	0.983425	-0.136566	0	0	-0.692425	0.124263	0.0612603	0.926953	-0.724573	0.544365	1.2424	0.402905	0	0	1.01316	-0.621282	0.678549	1.17021	0.387732	0	0
10.18	1.87447	1.47197	-0.2703	0.642744	0.223755	0.843369	0.62956	0.0126408	-0.0793454	1.04744	-0.237058	0	0	0.581583	-0.179208	0.0126638	0.962806	-0.140928	0	0	-0.680201	0.124369	0.0587131	0.917647	-0.723492	0.543939	1.23931	0.39759	0	0	1.00672	-0.620039	0.683174	1.16626	0.384103	0	0
10.19	1.90959	1.47234	-0.304811	0.642403	0.225811	0.847383	0.612845	0.0126448	-0.0774925	1.0299	-0.240184	0	0	0.563318	-0.176475	0.0106186	0.941575	-0.145809	0	0	-0.667542	0.123987	0.0559572	0.90805	-0.722323	0.543997	1.23679	0.395154	0	0	1.00032	-0.619154	0.687632	1.16273	0.380267	0	0
10.2	1.93944	1.47277	-0.334411	0.642083	0.227792	0.851375	0.597052	0.0127913	-0.0752394	1.0125	-0.243687	0	0	0.545474	-0.173697	0.00876254	0.919688	-0.151264	0	0	-0.654499	0.123475	0.0535287	0.898617	-0.720972	0.543956	1.23419	0.394201	0	0	0.99387	-0.618103	0.69168	1.15902	0.376495	0	0
10.21	2.03383	1.47245	-0.428621	0.642283	0.229087	0.855818	0.575878	0.012409	-0.071059	0.99573	-0.247473	0	0	0.520971	-0.169954	0.00590444	0.895848	-0.157955	0	0	-0.649362	0.11954	0.0506586	0.891861	-0.718784	0.543086	1.2313	0.393558	0	0	0.993785	-0.619081	0.700116	1.15577	0.371295	0	0
10.22	2.07597	1.47206	-0.470402	0.641942	0.231042	0.859936	0.558318	0.011815	-0.0700526	0.977584	-0.251463	0	0	0.500925	-0.167009	0.00371368	0.872001	-0.164531	0	0	-0.63826	0.118857	0.0481323	0.883132	-0.717091	0.542118	1.22857	0.393748	0	0	0.987851	-0.618725	0.704256	1.15309	0.366586	0	0
10.23	2.11882	1.47149	-0.512976	0.641624	0.23306	0.864042	0.540374	0.0112905	-0.0692811	0.959016	-0.255505	0	0	0.480423	-0.164281	0.000951643	0.847454	-0.171306	0	0	-0.627204	0.11796	0.0459866	0.874014	-0.715802	0.541256	1.22599	0.393574	0	0	0.982023	-0.617772	0.708384	1.1498	0.362202	0	0
